<?xml version="1.0" encoding="iso-8859-1"?>
<!-- Generator: Adobe Illustrator 19.0.0, SVG Export Plug-In . SVG Version: 6.00 Build 0)  -->
<svg version="1.1" id="Capa_1" xmlns="http://www.w3.org/2000/svg" xmlns:xlink="http://www.w3.org/1999/xlink" x="0px" y="0px"
	 viewBox="0 0 512 512" style="enable-background:new 0 0 512 512;" xml:space="preserve">
<g>
	<g>
		<path style="fill:#0470e5;" d="M464,64H48C21.49,64,0,85.49,0,112v288c0,26.51,21.49,48,48,48h416c26.51,0,48-21.49,48-48V112
			C512,85.49,490.51,64,464,64z M452.48,96L256,236.32L59.52,96H452.48z M32,393.44V115.68l161.92,115.68L32,393.44z M54.56,416
			l165.76-165.76l26.24,18.72c5.555,3.955,13.005,3.955,18.56,0l26.24-18.72L457.44,416H54.56z M480,393.44L318.08,231.36
			L480,115.68V393.44z"/>
	</g>
</g>
<g>
</g>
<g>
</g>
<g>
</g>
<g>
</g>
<g>
</g>
<g>
</g>
<g>
</g>
<g>
</g>
<g>
</g>
<g>
</g>
<g>
</g>
<g>
</g>
<g>
</g>
<g>
</g>
<g>
</g>
</svg>
